# Blender v2.78 (sub 0) OBJ File: ''
# www.blender.org
mtllib square-dark.mtl
o Cube.001
v 1.000000 -0.250000 1.000000
v -1.000000 -0.250000 1.000000
v -1.000000 -0.250000 -1.000000
v -1.000000 0.250000 -1.000000
v -1.000000 0.250000 1.000000
v 0.999999 0.250000 1.000001
v 1.000000 0.250000 -0.999999
v 1.000000 -0.250000 -1.000000
vt 0.0743 0.0661
vt 0.0682 0.9238
vt 0.9270 0.9323
vt 0.9914 1.0000
vt 0.0000 0.9899
vt 0.0069 0.0000
vt 1.0000 0.0055
vt 0.9344 0.0711
vn 0.0000 -1.0000 -0.0000
vn -0.0000 1.0000 0.0000
vn 1.0000 0.0000 0.0000
vn -0.0000 -0.0000 1.0000
vn -1.0000 -0.0000 0.0000
vn 0.0000 0.0000 -1.0000
usemtl None
s 1
f 1/1/1 2/2/1 3/3/1
f 4/4/2 5/5/2 6/6/2
f 7/7/3 6/6/3 1/1/3
f 6/6/4 5/5/4 2/2/4
f 5/5/5 4/4/5 3/3/5
f 8/8/6 3/3/6 4/4/6
f 8/8/1 1/1/1 3/3/1
f 7/7/2 4/4/2 6/6/2
f 8/8/3 7/7/3 1/1/3
f 1/1/4 6/6/4 2/2/4
f 2/2/5 5/5/5 3/3/5
f 7/7/6 8/8/6 4/4/6
